<svg width="24" height="24" viewBox="0 0 24 24" fill="none" xmlns="http://www.w3.org/2000/svg">
<path d="M5.25391 6.04688C4.97712 6.36101 4.72203 6.69523 4.49023 7.04688M5.25391 6.04688C5.04146 6.28805 4.84102 6.54135 4.6543 6.80566C4.59812 6.88519 4.54368 6.96577 4.49023 7.04688M5.25391 6.04688C5.30405 5.98995 5.35572 5.93449 5.40723 5.87891C5.35571 5.93449 5.30404 5.98998 5.25391 6.04688ZM4.49023 7.04688C4.45582 7.0991 4.42293 7.15223 4.38965 7.20508C4.42297 7.15216 4.45586 7.09902 4.49023 7.04688ZM5.88086 5.40332C6.40259 4.9182 6.98001 4.49618 7.60156 4.14648C6.97822 4.49712 6.40108 4.91969 5.88086 5.40332ZM5.88086 5.40332C5.82001 5.4599 5.76048 5.51789 5.70117 5.57617C5.76046 5.51792 5.81999 5.45991 5.88086 5.40332ZM12.2939 3.00488C13.7622 3.05319 15.198 3.46046 16.4746 4.19336C17.8363 4.97516 18.9698 6.10022 19.7617 7.45605L19.7891 7.50391L19.8154 7.53711C20.5934 8.89536 21.0021 10.4337 21 11.999V12.002C21.0045 13.9809 20.3562 15.9058 19.1562 17.4795C17.9562 19.0532 16.271 20.1877 14.3613 20.707C12.4517 21.2263 10.4244 21.1017 8.59277 20.3525C6.80462 19.6211 5.30199 18.3332 4.30273 16.6826V16.6719L4.2041 16.5049L4.20996 16.5029L11.625 12.2178L12 12.002V3L12.2939 3.00488ZM8.99902 10.2715C8.99823 10.2729 8.99648 10.2736 8.99512 10.2744L4.7207 12.7412L8.625 10.4834L9 10.2666C9 10.2682 8.99975 10.2701 8.99902 10.2715ZM3.00586 11.6797C3.00916 11.5907 3.01459 11.5018 3.02051 11.4131C3.01457 11.5018 3.00917 11.5907 3.00586 11.6797ZM3.02344 11.3594C3.02854 11.2892 3.03624 11.2193 3.04297 11.1494C3.03623 11.2193 3.02855 11.2892 3.02344 11.3594ZM3.05371 11.0303C3.06098 10.964 3.07038 10.898 3.0791 10.832C3.07037 10.8981 3.06099 10.964 3.05371 11.0303ZM3.09863 10.6855C3.10528 10.6409 3.1128 10.5963 3.12012 10.5518C3.11279 10.5963 3.10529 10.6409 3.09863 10.6855ZM3.16504 10.3018C3.16963 10.278 3.17393 10.2542 3.17871 10.2305C3.17393 10.2542 3.16963 10.278 3.16504 10.3018ZM3.2207 10.0361C3.23145 9.98827 3.2414 9.94024 3.25293 9.89258C3.2414 9.94024 3.23146 9.98828 3.2207 10.0361ZM3.53027 8.96582C3.55438 8.89862 3.58074 8.83226 3.60645 8.76562C3.58073 8.83225 3.55439 8.89863 3.53027 8.96582ZM3.65039 8.65332C3.67913 8.58168 3.70867 8.51037 3.73926 8.43945C3.70866 8.51037 3.67914 8.58169 3.65039 8.65332ZM3.76855 8.37012C3.79789 8.30363 3.82842 8.23768 3.85938 8.17188C3.82841 8.23768 3.79789 8.30365 3.76855 8.37012ZM3.91211 8.06348C3.94173 8.00263 3.97192 7.94206 4.00293 7.88184C3.97191 7.94205 3.94173 8.00264 3.91211 8.06348ZM4.04297 7.80469C4.07725 7.73965 4.11156 7.6746 4.14746 7.61035C4.11155 7.6746 4.07726 7.73967 4.04297 7.80469ZM4.2373 7.45605C4.26214 7.41361 4.28695 7.37117 4.3125 7.3291C4.28695 7.37117 4.26214 7.41362 4.2373 7.45605ZM5.48145 5.79883C5.53061 5.74705 5.58053 5.69607 5.63086 5.64551C5.58051 5.69607 5.53059 5.74707 5.48145 5.79883ZM7.64941 4.11914C7.72121 4.07932 7.79426 4.04179 7.86719 4.00391C7.79424 4.04179 7.72117 4.07935 7.64941 4.11914Z" fill="#F5F5F5" stroke="#3A3A3A" stroke-width="1.5"/>
</svg>
