<svg width="24" height="24" viewBox="0 0 24 24" fill="none" xmlns="http://www.w3.org/2000/svg">
<path d="M0 12C0 8.27247 0 6.4087 0.608964 4.93853C1.42092 2.97831 2.97831 1.42092 4.93853 0.608964C6.4087 0 8.27247 0 12 0C15.7275 0 17.5913 0 19.0615 0.608964C21.0217 1.42092 22.5791 2.97831 23.391 4.93853C24 6.4087 24 8.27247 24 12C24 15.7275 24 17.5913 23.391 19.0615C22.5791 21.0217 21.0217 22.5791 19.0615 23.391C17.5913 24 15.7275 24 12 24C8.27247 24 6.4087 24 4.93853 23.391C2.97831 22.5791 1.42092 21.0217 0.608964 19.0615C0 17.5913 0 15.7275 0 12Z" fill="#00AEEF"/>
<path d="M18.4329 17.25C17.481 15.6044 16.0142 14.4244 14.3023 13.865C15.1491 13.3609 15.8069 12.5928 16.1749 11.6786C16.5429 10.7644 16.6006 9.75474 16.3392 8.80459C16.0778 7.85444 15.5117 7.01636 14.7279 6.41907C13.9441 5.82178 12.9859 5.49829 12.0004 5.49829C11.015 5.49829 10.0567 5.82178 9.27293 6.41907C8.48911 7.01636 7.92304 7.85444 7.66163 8.80459C7.40022 9.75474 7.45793 10.7644 7.82591 11.6786C8.19388 12.5928 8.85177 13.3609 9.69854 13.865C7.98666 14.4237 6.51979 15.6037 5.56791 17.25C5.53301 17.3069 5.50985 17.3702 5.49982 17.4363C5.48978 17.5023 5.49307 17.5696 5.50949 17.6343C5.52591 17.6991 5.55512 17.7598 5.59541 17.8131C5.63569 17.8663 5.68624 17.911 5.74405 17.9444C5.80187 17.9778 5.86579 17.9992 5.93204 18.0075C5.9983 18.0158 6.06554 18.0108 6.1298 17.9926C6.19407 17.9745 6.25405 17.9437 6.30622 17.902C6.35838 17.8604 6.40168 17.8087 6.43354 17.75C7.61104 15.715 9.69229 14.5 12.0004 14.5C14.3085 14.5 16.3898 15.715 17.5673 17.75C17.5992 17.8087 17.6424 17.8604 17.6946 17.902C17.7468 17.9437 17.8068 17.9745 17.871 17.9926C17.9353 18.0108 18.0025 18.0158 18.0688 18.0075C18.135 17.9992 18.199 17.9778 18.2568 17.9444C18.3146 17.911 18.3651 17.8663 18.4054 17.8131C18.4457 17.7598 18.4749 17.6991 18.4913 17.6343C18.5078 17.5696 18.511 17.5023 18.501 17.4363C18.491 17.3702 18.4678 17.3069 18.4329 17.25ZM8.50041 9.99999C8.50041 9.30776 8.70568 8.63107 9.09027 8.0555C9.47485 7.47992 10.0215 7.03132 10.661 6.76641C11.3006 6.50151 12.0043 6.43219 12.6832 6.56724C13.3622 6.70229 13.9858 7.03563 14.4753 7.52512C14.9648 8.0146 15.2981 8.63824 15.4332 9.31718C15.5682 9.99611 15.4989 10.6998 15.234 11.3394C14.9691 11.9789 14.5205 12.5256 13.9449 12.9101C13.3693 13.2947 12.6926 13.5 12.0004 13.5C11.0725 13.499 10.1828 13.1299 9.52664 12.4738C8.87047 11.8176 8.50141 10.9279 8.50041 9.99999Z" fill="#121212"/>
</svg>
