<svg width="24" height="24" viewBox="0 0 24 24" fill="none" xmlns="http://www.w3.org/2000/svg">
<path d="M15.3655 7.50928C15.6226 8.2282 15.7527 8.98639 15.7499 9.74989C15.7499 11.5401 15.0388 13.257 13.7729 14.5229C12.507 15.7887 10.7901 16.4999 8.99989 16.4999H8.63428C9.09964 17.8162 9.96175 18.9558 11.1018 19.7617C12.2419 20.5676 13.6038 21.0002 14.9999 20.9999H21.1874C21.3366 20.9999 21.4797 20.9406 21.5851 20.8351C21.6907 20.7297 21.7499 20.5866 21.7499 20.4374V14.2499C21.7523 12.5222 21.0913 10.8596 19.9032 9.60522C18.7151 8.35088 17.0908 7.60058 15.3655 7.50928Z" fill="#1E1E1E"/>
<path d="M9 2.25C10.4918 2.25 11.8701 2.82129 11.8701 2.82129C13.2483 3.3922 14.3037 4.44629 14.3037 4.44629C15.3527 5.49527 15.9224 6.86458 15.9287 6.87988C16.4996 8.25817 16.5 9.75 16.5 9.75C16.5 11.2418 15.9287 12.6201 15.9287 12.6201C15.3578 13.9983 14.3037 15.0537 14.3037 15.0537C13.2547 16.1027 11.8854 16.6724 11.8701 16.6787C10.4918 17.2496 9 17.25 9 17.25H2.8125C2.26885 17.25 1.88477 16.8652 1.88477 16.8652C1.50034 16.4808 1.5 15.9375 1.5 15.9375V9.75C1.5 8.25816 2.07129 6.87988 2.07129 6.87988C2.6422 5.50166 3.69629 4.44629 3.69629 4.44629C4.74527 3.39731 6.11457 2.82765 6.12988 2.82129C7.49435 2.25611 8.9701 2.25006 8.99902 2.25H9ZM9.00098 3.75C9.00098 3.75 7.80671 3.75033 6.7041 4.20703C6.7041 4.20703 5.60173 4.6639 4.75781 5.50781C4.75733 5.50829 3.91362 6.35179 3.45703 7.4541C3.45306 7.46372 3 8.56176 3 9.75V15.75H9C9 15.75 10.1933 15.7497 11.2959 15.293C11.2959 15.293 12.3983 14.8361 13.2422 13.9922C13.2423 13.9921 14.0863 13.1485 14.543 12.0459C14.547 12.0363 15 10.9382 15 9.75C15 9.75 14.9997 8.55671 14.543 7.4541C14.543 7.4541 14.0861 6.35173 13.2422 5.50781C13.2421 5.50776 12.3985 4.66374 11.2959 4.20703C11.2863 4.20306 10.1888 3.75022 9.00098 3.75Z" fill="#1E1E1E"/>
<path d="M15.4052 6.76033C15.392 6.75963 15.3787 6.75928 15.3655 6.75928C15.333 6.75928 15.3005 6.76139 15.2682 6.76562C14.9097 6.81253 14.6357 7.10857 14.6166 7.46964C14.6159 7.48284 14.6155 7.49606 14.6155 7.50928C14.6155 7.52019 14.6158 7.5311 14.6162 7.542C14.6238 7.71578 14.6916 7.88151 14.8079 8.01084C14.9409 8.15873 15.1273 8.24772 15.3259 8.25823C17.7141 8.38462 19.3587 10.121 19.3587 10.121C21.0032 11.8573 20.9999 14.2489 20.9999 14.2489V20.2499H14.9999C13.0923 20.2504 11.5347 19.1493 11.5347 19.1493C9.97743 18.0484 9.34158 16.2504 9.34158 16.2504L9.34138 16.2499C9.23544 15.9502 8.95211 15.7499 8.63428 15.7499L8.62508 15.75C8.54301 15.751 8.46166 15.7654 8.38428 15.7928C8.19674 15.8591 8.04323 15.9972 7.9575 16.1767C7.9093 16.2776 7.88428 16.388 7.88428 16.4999L7.88445 16.5162C7.88618 16.5959 7.9006 16.6748 7.92717 16.7499C8.72193 18.9978 10.6689 20.3742 10.6689 20.3742C12.6158 21.7505 14.9999 21.7499 14.9999 21.7499H21.1874C21.7311 21.7499 22.1155 21.3655 22.1155 21.3655C22.4999 20.9811 22.4999 20.4374 22.4999 20.4374V14.251C22.5019 12.811 21.9699 11.473 21.9699 11.473C21.4379 10.1349 20.4477 9.08947 20.4477 9.08947C19.4575 8.04403 18.1503 7.44023 18.1503 7.44023C16.8433 6.83654 15.4057 6.76035 15.4057 6.76035L15.4052 6.76033Z" fill="#1E1E1E"/>
</svg>
