<svg width="120" height="34" viewBox="0 0 120 34" fill="none" xmlns="http://www.w3.org/2000/svg">
<path d="M0 0C1.95808 0.15966 3.93937 0.364938 5.92841 0.577818C8.36633 8.34034 10.7656 15.814 13.0719 22.9226C13.1493 22.9074 13.2499 22.9074 13.3351 22.8922C15.177 15.8672 17.019 9.00179 18.8842 2.3949C20.881 2.67621 22.8933 2.99553 24.9055 3.30725C25.1919 12.9857 25.4628 22.7021 25.7027 32.297C24.1625 32.3958 22.6069 32.4718 21.0745 32.5479C20.912 26.1538 20.7262 19.661 20.5018 13.0921C20.4553 13.1301 20.3779 13.0997 20.3392 13.1073C18.5824 19.5774 16.8178 26.1462 15.0532 32.7227C14.0084 32.7988 12.9558 32.8672 11.911 32.9356C9.79813 26.4047 7.64657 19.6002 5.44083 12.4687C5.37117 12.4763 5.30152 12.4763 5.25508 12.4611C5.55692 19.7674 5.76588 26.7697 5.92841 33.5286C4.37278 33.6503 2.87907 33.8175 1.36988 34C1.16866 23.6297 0.704289 12.2254 0 0ZM50.2831 18.9083C50.3218 21.5693 49.8729 23.8198 48.9365 25.7053C48.0387 27.6288 46.8004 29.1342 45.1983 30.1758C43.6117 31.2858 41.8394 31.9168 39.8426 32.008C37.8381 32.1069 36.0116 31.6583 34.4095 30.6167C32.7688 29.5675 31.4918 27.9937 30.5011 25.8725C29.5182 23.7285 28.9842 21.0903 28.8991 18.0112C28.8294 14.9396 29.2396 12.3547 30.1219 10.2867C31.0197 8.27952 32.2425 6.82737 33.8755 5.98345C35.4776 5.12433 37.3041 4.90385 39.3783 5.23077C41.406 5.55009 43.248 6.31798 44.8965 7.56485C46.545 8.75089 47.853 10.2943 48.8049 12.195C49.7646 14.0425 50.2599 16.3005 50.2831 18.9083ZM45.3995 18.7563C45.3763 17 45.1054 15.487 44.6101 14.2554C44.1071 13.0085 43.4337 12.0581 42.5514 11.3283C41.6614 10.606 40.6321 10.165 39.4479 10.0434C38.2793 9.91413 37.2577 10.1042 36.3754 10.644C35.5163 11.199 34.8662 12.157 34.4095 13.4419C33.9684 14.7191 33.7594 16.3157 33.7981 18.2469C33.8523 20.178 34.1232 21.8126 34.6185 23.1355C35.1293 24.4508 35.8259 25.424 36.7082 26.1158C37.5827 26.7697 38.5888 27.0966 39.7575 27.0814C40.9184 27.051 41.9168 26.7241 42.7836 26.0626C43.6117 25.3936 44.2696 24.4432 44.7417 23.2344C45.2061 22.0027 45.4228 20.5125 45.3995 18.7563ZM74.7011 18.7715C74.6933 21.4325 74.2367 23.6981 73.308 25.5988C72.387 27.4615 71.1254 28.8681 69.5234 29.826C67.9291 30.746 66.149 31.1945 64.1445 31.1565C62.1477 31.1413 60.3289 30.6928 58.7346 29.7576C57.1093 28.8301 55.8091 27.4083 54.9113 25.6292C53.9516 23.8122 53.4795 21.5921 53.4408 18.9767C53.4254 16.4374 53.8975 14.339 54.8339 12.636C55.7704 10.9937 57.0397 9.80009 58.6572 9.0246C60.2902 8.20349 62.1245 7.83095 64.1213 7.75492C66.149 7.61047 67.9368 7.80814 69.5389 8.59124C71.1409 9.3059 72.387 10.5148 73.308 12.2178C74.2367 13.9513 74.7088 16.1257 74.7011 18.7715ZM69.8562 18.9539C69.8562 17.2813 69.6163 15.9052 69.1364 14.7876C68.6643 13.7232 68.0065 12.9325 67.1474 12.4079C66.2883 11.9061 65.2822 11.678 64.1135 11.7236C62.9603 11.7616 61.931 12.0505 61.0719 12.5979C60.1896 13.1453 59.524 13.936 59.0287 15.0233C58.5643 16.1029 58.3322 17.4638 58.3322 19.0756C58.3476 20.7102 58.5876 22.1167 59.0597 23.2572C59.5318 24.3748 60.2206 25.2415 61.0951 25.8421C61.9387 26.4199 62.9758 26.7241 64.1058 26.7089C65.2822 26.7317 66.296 26.4428 67.1474 25.8345C67.9987 25.2339 68.672 24.3672 69.1364 23.2039C69.6163 22.0407 69.8562 20.6266 69.8562 18.9539ZM81.0706 5.92263C82.8507 12.0809 84.6695 18.4978 86.4882 25.1047C86.5579 25.1047 86.6275 25.1047 86.7049 25.1047C88.5237 18.3001 90.3425 11.3511 92.1845 4.22719C93.9413 3.94589 95.6904 3.70259 97.4395 3.42129C94.8468 13.1301 92.2619 22.5349 89.6924 31.5747C87.6414 31.5063 85.5827 31.3998 83.5395 31.377C80.9313 22.7174 78.3463 14.4911 75.7691 6.66011C77.526 6.42442 79.306 6.18873 81.0706 5.92263ZM98.8404 3.22361C100.628 2.96512 102.393 2.67621 104.181 2.42531C105.883 6.53846 107.609 10.8417 109.312 15.2133C109.381 15.2133 109.451 15.1981 109.529 15.1905C111.247 10.6592 112.942 5.87701 114.644 1.07961C116.448 0.904741 118.228 0.729875 120 0.555009C117.26 8.15787 114.528 15.2285 111.796 21.881C111.796 25.4544 111.781 28.9745 111.781 32.449C110.21 32.3578 108.639 32.2665 107.06 32.1905C107.052 28.754 107.052 25.3023 107.06 21.7974C104.32 15.373 101.58 9.16145 98.8404 3.22361Z" fill="#7B61FF"/>
</svg>
