<svg width="40" height="40" viewBox="0 0 40 40" fill="none" xmlns="http://www.w3.org/2000/svg">
<path d="M14.9999 36.6666C14.5579 36.6666 14.134 36.4911 13.8214 36.1785C13.5088 35.8659 13.3333 35.442 13.3333 35V30H6.66659C5.78253 30 4.93468 29.6488 4.30956 29.0237C3.68444 28.3985 3.33325 27.5507 3.33325 26.6666V6.66665C3.33325 5.78259 3.68444 4.93474 4.30956 4.30962C4.93468 3.6845 5.78253 3.33331 6.66659 3.33331H33.3333C34.2173 3.33331 35.0652 3.6845 35.6903 4.30962C36.3154 4.93474 36.6666 5.78259 36.6666 6.66665V26.6666C36.6666 27.5507 36.3154 28.3985 35.6903 29.0237C35.0652 29.6488 34.2173 30 33.3333 30H23.1666L16.9999 36.1833C16.6666 36.5 16.2499 36.6666 15.8333 36.6666H14.9999Z" fill="#FF3C67"/>
</svg>
