<svg width="24" height="24" viewBox="0 0 24 24" fill="none" xmlns="http://www.w3.org/2000/svg">
<path d="M12 3.75C12.035 3.75 12.0794 3.75803 12.1406 3.79004C12.1667 3.80371 12.1963 3.82595 12.2295 3.88184L21.4756 19.875L21.4824 19.8857C21.5147 19.9395 21.5142 19.9661 21.5137 19.9785C21.5109 20.0395 21.4966 20.0873 21.4717 20.1318C21.4513 20.168 21.4246 20.1978 21.3799 20.2256C21.3567 20.24 21.3297 20.2504 21.2803 20.25H2.72559C2.67358 20.25 2.6424 20.2392 2.61523 20.2227C2.57428 20.1977 2.55017 20.1709 2.53125 20.1367C2.50476 20.0887 2.4901 20.0387 2.4873 19.9775C2.48676 19.9653 2.48696 19.9384 2.51953 19.8838L2.52441 19.875L11.7686 3.88574C11.8039 3.82684 11.8357 3.80304 11.8623 3.78906C11.9219 3.75779 11.9651 3.75003 12 3.75ZM12.002 9.25C11.5281 9.24889 11.0961 9.41839 10.7568 9.75879C10.4192 10.0977 10.25 10.5278 10.25 11V14C10.25 14.4726 10.4186 14.9039 10.7578 15.2432C10.8593 15.3447 10.9703 15.4291 11.0869 15.5C10.9698 15.5713 10.8586 15.6566 10.7568 15.7588C10.4195 16.0974 10.2512 16.5271 10.25 16.998C10.2489 17.4718 10.4183 17.9036 10.7578 18.2432C11.0966 18.5819 11.5272 18.7504 12 18.749V18.75L12.001 18.749H12.0029C12.4744 18.7484 12.9045 18.5808 13.2432 18.2422C13.5826 17.9028 13.7511 17.4711 13.75 16.998C13.7488 16.527 13.5806 16.0974 13.2432 15.7588C13.1412 15.6564 13.0304 15.5704 12.9131 15.499C13.03 15.428 13.1414 15.3439 13.2432 15.2422C13.5826 14.9028 13.7511 14.4711 13.75 13.998V11C13.75 10.5274 13.5814 10.0958 13.2412 9.75684C12.9025 9.41943 12.473 9.25111 12.002 9.25Z" fill="#F5F5F5" stroke="#3A3A3A" stroke-width="1.5"/>
</svg>
